<svg version="1.2" xmlns="http://www.w3.org/2000/svg" viewBox="0 0 2560 601" width="2560" height="601">
	<title>logo-svg</title>
	<style>
		.s0 { fill: #000000 } 
	</style>
	<path id="Eppur Si Evolve" fillRule="evenodd" class="s0" d="m667.5 528.4q-14.5 0-27.5-2.5-12.7-2.9-20.6-10.5-8-7.6-8-21.6 0-3.8 0.7-7.9 0.6-4.4 1.9-9.2 3.2-11.1 9.2-23 6-12.5 13.9-25.1 13.9-23.1 35.1-46.2 21.3-23.5 42.8-43.4-16.8 0.4-34.2 2.2-17.1 1.6-31.4 3.8-14.1 2.3-22.8 5.1-10.7 3.2-17.7 7.3-6.6 4.1-6.6 8.5 0 5.7 13.3 11.8 0.7 0.2 0.7 1.3 0 2.7-2.9 2.1-8.9-3.8-13.4-8.2-4-4.8-4-9.5 0-5.7 6-11 6.3-5.4 17.7-8.9 5.4-1.6 17.7-3.2 12.4-1.9 29.2-3.5 16.8-1.6 35.4-2.5 19-0.9 37.1-0.9 18.3 0 34.2 1.2 15.8 1.3 26.2 4.4 10.5 2.9 12.7 8.3 0.9 1.8 0.9 4.4 0 5.4-3.8 11.7-3.8 6-8.8 11.4-1.7 1.6-3.2 1.6-1.9 0-1.9-1.9 0-1.3 1.3-2.6 8.5-8.8 7-17-0.7-4.5-6.7-7.4-5.8-3.1-14.6-5-8.5-1.9-18.3-2.8-9.8-1-18.4-1-12.7 0-18.3 1.6-2.9 0.7-9.6 6.7-6.6 5.9-15.2 14.8-8.2 8.5-16.7 18.1-8.3 9.4-15.2 17.4-7 7.9-10.5 12 14.9-1.6 28.8-2.5 14.3-1.3 29.8-1.3 7.6 0 15.5 0.3 8.3 0.3 17.1 1.2 5.1 0.4 5.1 2.3 0 1.3-2.2 2.2-2.3 1-3.8 1-4.2 0-8.9 0-4.5-0.4-9.5-0.4-13.3 0-27.9 0.7-14.5 0.6-27.5 1.8-13 1.3-22.2 2.9-9.8 13.6-18.3 29.8-8.3 15.8-11.8 30.7-1.8 7.6-1.8 13.9 0 11.7 5.3 18.4 5.7 6.3 15 8.9 9 2.5 19.9 2.5 13.9 0 32.6-2.9 18.6-3.1 37.6-10.1 19.3-7.3 34-19 5.3-4.1 9.4-9.2 4.5-5.1 7.9-10.4 1-1.2 1.7-1.2 0.9 0 0.9 1.5 0 1.6-0.9 3.2-3.3 5.1-7.1 10.5-3.8 5.3-8.1 9.7-14 13.6-31.5 21.2-17 7.6-35.7 10.5-18.4 2.9-36.1 2.9zm36.7 58.5q-6 0-11.7-1.5-5.3-2-9.8-5.8-2.5-2.5-3.8-5.6-0.9-3.6-0.9-6.4 0-2.8 0.5-4.8 1.1-2.2 2-2.2 0.9 0 1.8 4.7 1.3 8.9 8.3 13.7 6.9 4.4 15.2 4.4 12 0 23.2-7.2 11.4-7.3 21.5-19 10.1-11.8 18.6-25.4 8.9-13.9 15.6-27.2-2.5-1.9-4.5-3.8-1.8-2.2-1.8-4.4 0-2 1.5-3.2 1.2-1.3 2.8-1.3 1.6 0 2.9 1.9 1.6 1.7 2.9 3.3 3.4-7.4 6.7-14.6 3.1-7.6 6.9-15.6 2.5-5.4 6-13 3.8-7.8 7.6-14.8-2.9-3.2-6.4-4.8-3.4-1.9-7.2-1.2-3.3 0.3-2-0.7 1.4-0.9 1.6-1.3 2-0.9 4.2-0.9 3.1 0 6 1.6 3.2 1.3 5.9 3.5 5.1-9.5 8.9-12.4 2.9-1.9 4.5-1.9 1.8 0 1.8 1.9 0 2.9-5 7.6-1.3 1-3.5 3.5-2.2 2.5-3.4 4.5 6.6 6 11.7 14.1 5.3 8 7.3 11.8 5.9 11.7 5.9 20.2 0 9.8-5.9 16.2-6 6.3-14.7 8.6 15.9-1.3 27-11.4 11.4-10.1 22.2-26.4 0.2-0.5 0.9-0.5 1.3 0 1.3 1.6 0 0.9-0.9 2.5-11.2 16.7-24.4 27.5-13.4 10.7-35.2 10.7-7 0-12.6-1.2-5.8-1.5-11.2-3.2l-0.9-0.3q-1.3 2.5-2.2 5.1-0.9 2.5-2.2 4.7-13.9 27.8-32.3 46.6-18.1 18.3-46 21.5-1.2 0-2.5 0.3-0.9 0-2.2 0zm91 0q-6.1 0-11.8-1.5-5.4-2-9.9-5.8-2.4-2.5-3.7-5.6-1-3.6-1-6.4 0-2.8 0.7-4.8 0.9-2.2 1.8-2.2 1 0 2 4.7 1.3 8.9 8.2 13.7 7 4.4 15.2 4.4 12 0 23.1-7.2 11.4-7.3 21.5-19 10.2-11.8 18.7-25.4 8.8-13.9 15.5-27.2-2.5-1.9-4.4-3.8-1.9-2.2-1.9-4.4 0-2 1.6-3.2 1.3-1.3 2.8-1.3 1.6 0 2.8 1.9 1.6 1.7 2.9 3.3 3.5-7.4 6.7-14.6 3.1-7.6 6.9-15.6 2.5-5.4 6-13 3.9-7.8 7.6-14.8-2.8-3.2-6.3-4.8-3.5-1.9-7.3-1.2-3.1 0.3-1.8-0.7 1.2-0.9 1.5-1.3 1.9-0.9 4.1-0.9 3.2 0 6.1 1.6 3.1 1.3 6 3.5 5.1-9.5 8.9-12.4 2.7-1.9 4.3-1.9 2 0 2 1.9 0 2.9-5.1 7.6-1.2 1-3.4 3.5-2.3 2.5-3.6 4.5 6.7 6 11.7 14.1 5.4 8 7.3 11.8 6 11.7 6 20.2 0 9.8-6 16.2-6 6.3-14.5 8.6 15.8-1.3 26.8-11.4 10.8-9.5 20.8-24.2 1.9-4.5 4.3-9.4 4.7-9.2 10.1-15.8 5.3-7 11.1-7 2.5 0 2.5 1.2 0 1.3-1.2 2.6-6.4 7.6-12 18.1-5.4 10.1-9.2 19.3-3.5 9.1-4.2 13.9-0.9 10.2 6 10.2 6 0 12.7-5.5 7-5.7 13.3-14.2 6.7-8.9 11.4-18.3 5.1-9.9 11.1-18.5 6-8.8 12.3-8.8 2.5 0 2.5 1.2 0 1.3-1.2 2.6-6.4 7.6-12 18.1-5.4 10.1-9.2 19.3-3.5 9.1-4.2 13.9-0.9 10.2 6.1 10.2 6.9 0 14.2-6.4 7.3-6.3 13.6-14.6 4.8-6.2 8.1-11 5.1-7.7 8.7-14.7 5.1-9.8 8.9-18.3l7-15.5q0.3-0.6 0.6-1.6 0.6-1.3 0.9-1.5 0.7-0.7 1.4-0.7 1.1 0 1.8 1.3 0.7 1.2 0 3.2-0.7 3.4 0.9 6.9 1.6 3.4 4.2 6.3 2.5 2.5 7.2 4.7 4.9 2.3 8.7 5.1 3.6 2.9 2.7 7.4-1.3 6-6.5 11.6-5.5 5.8-10.9 12.1-3.8 4.1-7 8.2-2.8 4.1-4.4 8.6-0.3 0.9-0.5 1.8 0 1 0 2 0 5.6 5.9 5.6 1.9 0 4.8-0.9 7.9-2.9 14.6-9.4 6.9-6.7 11.6-13.4 5.1-6.7 6.7-9.2 2.5-3.8 3.1-3.8 1 0 1 1.6 0 1.6-1 3.1-6.9 11.2-15.8 21-8.8 9.8-19 13.9-4.7 1.9-8.5 1.9-5.4 0-8.5-3.5-2.9-3.8-2.9-8.9 0-4.7 2.2-9.1 3.5-7.3 8.9-14.2 5.6-7.4 10.4-12.7 3.2-4.1 3.2-7 0-3.8-4.8-7.6-3.8-2.6-7-6.7-2.2-3.1-3.1-6.3-5.1 10.4-13 24.4-4.3 7.7-8.8 14.5-0.1 0.1-0.1 0.1-5 8.2-12.3 17-7 8.6-14.8 14.7-8 5.6-16.2 5.6-5.7 0-8.2-3.8-2.6-3.8-2.6-9.4 0-4.5 0.9-8.6l0.7-2.8q-6 7.8-12.6 14.1-6.4 6.4-12.7 8.7-4.8 1.8-8.3 1.8-5.6 0-8.2-3.8-2.5-3.8-2.5-9.4 0-4.5 0.9-8.6 0.5-1.4 2-6-8.2 10.5-17.5 18-13.3 10.7-35.1 10.7-7 0-12.7-1.2-5.7-1.5-11-3.2l-1.1-0.3q-1.2 2.5-2.2 5.1-0.9 2.5-2.2 4.7-13.9 27.8-32.2 46.6-18.1 18.3-45.9 21.5-1.3 0-2.6 0.3-0.9 0-2.1 0zm16.1-78.2q9.1-0.3 16.4-5.6 7.6-5.8 7.6-18.5 0-5.4-1.6-11.4-1.6-6.3-5-14.2-2-4.1-4.5-8.2-2.2-4.5-5.3-8.3-4.2 8.6-7.6 17.2-3.6 8.5-5.8 13.2-2.5 6.7-5.6 15-2.9 7.8-6.1 15.5 7.9 5.3 17.5 5.3zm90.8 0q9.2-0.3 16.5-5.6 7.6-5.8 7.6-18.5 0-5.4-1.6-11.4-1.5-6.3-5.1-14.2-1.8-4.1-4.4-8.2-2.3-4.5-5.4-8.3-4.1 8.6-7.6 17.2-3.4 8.5-5.7 13.2-2.6 6.7-5.7 15-2.9 7.8-6 15.5 7.9 5.3 17.4 5.3zm328 5.8q-13.9 0-27.3-2.6-6.9-1.6-11.6-3.8-4.5-2.3-8-3.5-4.3-2.2-4.3-5.1 0-1.3 1.8-1.3 0.7 0 1.3 0 0.7 0 1.6 0.7 4.7 1.9 10.1 4.2 5.4 2.1 11.1 2.7 2.5 0.4 6.6 0.7 4.1 0.4 8.6 0.4 8.5 0 17.7-1.3 9.2-1.6 15.5-5.1 6.4-3.8 6.4-10.8 0-3.8-5.1-9.4-5.1-5.8-13-13-8-7.6-16.5-16.5-8.1-8.9-14.5-18.7-5.7-9.2-9.9-19.3-3.8-10.5-3.8-21.2 0-17.1 8-29.5 8.3-12.3 21.5-20.2 13.6-8 29.1-11.8 15.9-4.1 31.1-4.1 7.6 0 14.2 1 8.6 1 18.4 4.4 10.1 3.2 17 9.8 7.4 6.7 7.4 17.7 0 11.8-7.4 22.6-7.2 10.7-17.9 19-10.5 7.8-20.6 12-2 0.6-3.3 0.6-2.2 0-2.2-1 0-0.6 1.7-1.5 1.6-1.3 1.8-1.6 7.4-5.8 13.9-10.1 7.1-4.7 12.5-11.1 6.3-7.3 9.1-13.9 3.2-7 3.2-13 0-10.1-8.5-17.2-8.3-6.9-24.1-8.8-2.9-0.3-5.8-0.3-2.8-0.3-5.6-0.3-15 0-30.2 4.4-15.2 4.1-27.8 12.4-12.7 7.8-20.5 19-7.6 11-7.6 25 0 16.1 12 33.8 6.6 9.6 15.9 18.4 9 8.9 17.9 17.1 9.2 7.9 15 15.2 6 7.2 6 13.6 0 7.9-6 12.6-5.8 4.9-15.2 6.7-9.2 2-19.7 2zm109.6-95.4q-4.5 0-5.4-5.4-0.4-2.5 3.1-5 3.6-2.6 5.7-3.5 1.7-0.7 2.6-0.9 0.9-0.4 1.6-0.4 2.2 0 2.2 2.2 0 2.6-2 6-1.5 3.6-1.5 3.6-0.3 1.2-2.3 2.5-1.8 0.9-4 0.9zm-31.7 93.4q-5.7 0-8.3-3.8-2.5-3.8-2.5-9.4 0-4.5 0.9-8.6 0.7-1.9 3.3-9.5 2.7-7.6 7.2-16.8 4.7-9.2 10.1-15.8 5.4-7 11.1-7 2.5 0 2.5 1.2 0 1.3-1.2 2.6-6.4 7.6-12 18.1-5.4 10.1-9.2 19.3-3.5 9.1-4.2 13.9-0.9 10.2 6.1 10.2 1 0 1.9 0 0.9-0.4 2.2-0.7 6.6-2.2 13-8.2 6.3-6.1 11.7-13.4 5.4-7.2 8.9-12.6 1.2-1.3 1.6-1.3 0.9 0 0.9 1.6 0 1.6-0.9 3.1-7 10.9-16.5 21.3-9.2 10.4-18.4 14-4.7 1.8-8.2 1.8zm180.4 15.9q-14.5 0-27.5-2.5-12.6-2.9-20.6-10.5-7.9-7.6-7.9-21.6 0-3.8 0.7-7.9 0.5-4.4 1.8-9.2 3.2-11.1 9.2-23 6-12.5 13.9-25.1 14-23.1 35.1-46.2 21.2-23.5 42.9-43.4-16.8 0.4-34.3 2.2-17.1 1.6-31.3 3.8-14.3 2.3-22.8 5.2-10.7 3.1-17.8 7.2-6.5 4.1-6.5 8.5 0 5.7 13.2 11.8 0.6 0.2 0.6 1.3 0 2.8-2.8 2.1-8.8-3.8-13.3-8.2-4.1-4.8-4.1-9.5 0-5.7 6-11 6.4-5.4 17.8-8.9 5.4-1.6 17.7-3.2 12.3-1.9 29.1-3.5 16.8-1.6 35.5-2.5 19-0.9 36.9-0.9 18.4 0 34.3 1.2 15.8 1.3 26.3 4.4 10.5 2.9 12.6 8.3 1 1.8 1 4.4 0 5.4-3.8 11.7-3.8 6-8.9 11.4-1.6 1.6-3.1 1.6-2 0-2-1.9 0-1.3 1.3-2.6 8.5-8.8 7-17-0.7-4.5-6.7-7.4-5.7-3.1-14.6-5-8.5-1.9-18.3-2.8-9.8-1-18.4-1-12.7 0-18.3 1.6-2.9 0.7-9.6 6.7-6.6 5.9-15.2 14.8-8.1 8.5-16.8 18.1-8.1 9.4-15 17.4-7.1 7.9-10.5 12 14.8-1.6 28.8-2.5 14.2-1.3 29.8-1.3 7.5 0 15.4 0.3 8.3 0.3 17.2 1.4 5 0.2 5 2.1 0 1.3-2.2 2.2-2.3 1-3.8 1-4.1 0-8.8 0-4.5-0.4-9.6-0.4-13.2 0-27.8 0.7-14.6 0.7-27.6 1.8-13 1.3-22.2 2.9-9.8 13.6-18.3 29.8-8.3 15.8-11.7 30.7-2 7.6-2 13.9 0 11.7 5.4 18.4 5.8 6.3 15 8.9 9.1 2.5 19.9 2.5 13.9 0 32.6-2.9 18.6-3.1 37.6-10.1 19.4-7.3 33.9-19 5.4-4.1 9.5-9.2 3.5-4 6.4-8.1 0.4-0.6 0.9-1.3 3.2-4.8 7-10.2 3.8-5.7 6.3-9.4 4.8-7 13.1-7h0.9q0.9 0 0.9 0.7 0 0.2-1.6 2.7-3.1 4.5-7.6 12.7-4 8.3-7.3 17.7-2.8 9.2-2.8 17.2 0 6.3 2.8 10.7 1.3 1.9 4.2 1.9 2.7 0 6.3-2.3 3.8-2.2 6.6-4.7 7-5.6 13.7-14.8 6.9-9.3 11.4-19.7 4.7-10.4 4.7-20 0-5-1.6-8.5-1.5-3.4-5.1-4.1-1.3 0-1.3-1.3 0-1.8 2.6-1.8 6.3 0 9.8 5.3 3.8 5 3.8 13.3 0 4.4-1.2 9.5-1.3 5.1-3.8 10.1-4.1 7.9-10.8 17.5-6.7 9.2-15.2 16.5-8.5 6.9-18.4 8.5-0.9 0.3-2.8 0.3-3.6 0-6-1.6-3.9-1.8-5.4-6.9-1.6-5.2-1.6-11.2 0-5.9 0.9-11.7 1.3-5.6 2.6-9.4 0.3-1 0.6-1.7 0.3-0.9 0.6-1.8-2.1 2.9-3.8 5.4-0.1 0.3-0.3 0.6-3.1 5.1-6.9 10.5-3.8 5.4-8.3 9.7-13.8 13.6-31.3 21.2-17.1 7.6-35.8 10.5-18.3 2.9-36.1 2.9zm207.7-16.8q-8.5 0-14.8-4.2-6.4-4.3-6.4-15.5 0-6.9 3.5-15.1 3.4-8.6 8.8-16.6 5.7-8.1 12.4-13.6 1.6-1.2 4.1-1.2 3.8-3.8 8.5-5.7 5.1-1.9 9.6-1.9 7.8 0 14.5 5 7 5.1 7 16.2 0 6.3-3.4 15.2-3.3 8.3-9.9 17.1-6.7 8.5-15.5 14.5-8.6 5.8-18.4 5.8zm-0.3-3.8q7 0 14.2-5.4 7.6-5.3 14-13.6 6.3-8.5 9.2-17.2 3.1-8.5 3.1-15.2 0-8.1-4.4-11.6-4.5-3.8-9.9-3.8-8.5 0-14.8 5.6 3.2 2 0.7 3.8-4.5 3.8-10.2 10.5-5.4 6.7-8.5 12.3-2.3 3.8-4.1 9.9-1.7 6-1.7 11.3 0 5.4 2.6 9.6 2.9 3.8 9.8 3.8zm77.6 5q-7.6 0-12.1-4.7-4.4-5-6-12.6-1.6-7.6-1.3-15.6 0.9-13.6 6-31.1 5.2-17.3 13-35.3 8.3-18.4 18.1-34.5 10.1-16.2 21.2-27.9 11-11.7 21.8-16.2 3.5-1.5 6-1.9 2.6-0.7 4.7-0.7 7.6 0 10.2 7.4 1.4 2.5 1.4 6.3 0 7.6-5.2 17.8-4.4 9.1-12.7 20.8-8.2 11.4-18.6 23.5-10.2 11.7-20.5 22.8-10.5 10.7-19.4 19.2-8.8 8.6-14.2 13-1.9 10.5-1.9 19.7 0 9.8 3.1 17 3.5 7.3 11.4 7.3 7.6 0 14.9-6 7.2-6 13.3-14.3 3.6-4.5 6.4-8.5 0.1-0.4 0.5-0.8 0.1-0.1 0.2-0.3 1.3-1.9 4-6 3.2-4.8 7-10.2 3.8-5.7 6.3-9.5 4.8-6.9 12.9-6.9h1.1q0.9 0 0.9 0.6 0 0.3-1.6 2.8-3.1 4.5-7.6 12.7-4.2 8.3-7.3 17.7-2.9 9.2-2.9 17.2 0 6.3 2.9 10.7 1.3 1.9 4.2 1.9 2.7 0 6.3-2.3 3.8-2.2 6.6-4.7 7-5.6 13.7-14.8 6.9-9.2 11.4-19.7 4.7-10.4 4.7-19.9 0-5.1-1.6-8.6-1.6-3.4-5.1-4.1-1.3 0-1.3-1.3 0-1.8 2.6-1.8 6.3 0 9.8 5.3 3.8 5.1 3.8 13.3 0 4.4-1.3 9.5-1.3 5.2-3.8 10.1-4 8-10.7 17.5-6.7 9.2-15.2 16.5-8.5 6.9-18.4 8.5-1 0.3-2.8 0.3-3.6 0-6.1-1.6-3.8-1.9-5.3-6.9-1.6-5.2-1.6-11.1 0-6 0.9-11.8 1.3-5.6 2.5-9.4 0.4-1 0.7-1.6 0.3-1 0.6-1.9-2.9 4-5.1 7.3-0.2 0.4-0.5 0.7-5.6 8.7-12.5 17.2-6.9 8.5-15.2 14.2-8.1 5.7-17.3 5.7zm-6.4-55q7-6.3 18.1-18.1 11.4-11.7 23.4-26 12.3-14.3 22.5-27.8 10.2-14 14.9-24.7 1.8-3.8 3.1-8.3 1.3-4.3 1.3-8.1 0-7.1-5.1-7.1-6.9 0-18.7 11.1-13 12.1-24.9 30.7-12.1 18.5-21.2 38.9-9 20.4-13.4 39.3zm146.9 55.1q-13 0-19-5.7-6-6-6-15.8 0-2.5 0.3-5 0.7-2.9 1.4-5.8 1.4-5.6 4.9-13.2 3.8-7.6 9.2-14.9 5.4-7.2 11.8-12.1 6.3-4.7 13.2-4.7 5.7 0 8.6 4.1 3.1 4.1 3.1 9.8 0 6-3.8 12.3-3.4 6-9.4 9.8-7 4.9-15.9 4.9-5.6 0-10.5-2.3-4.7 9.5-4.7 18.7 0 6.6 3.8 11.4 3.8 4.7 12.7 4.7 10.8 0 19-5 8.3-5.4 15.2-14 7.2-8.5 13.9-18.4 1-0.9 1.3-0.9 1 0 1 1.6 0 1.6-1 3.1-5.7 8.9-13 17.5-7 8.5-15.8 14.2-8.9 5.7-20.3 5.7zm-4.7-40.8q8.2 0 15.4-5.7 3.6-2.5 6.1-6.1 2.6-3.4 3.5-6.9 0.9-3.4 0.9-6 0-7.3-5.4-7.3-3.5 0-7.8 4.1-3.8 3.5-8 8.9-3.8 5.4-6.7 10.5-2.8 4.7-3.8 7 2.2 1.5 5.8 1.5z"/>
	<path id="FEYLESOFYA" fill-rule="evenodd" class="s0" d="m6.7 296q0 0 0.1 0 0 0 0 0zm-4.1-1.9q-1.1-1.9-1.1-4.1 0-2.6 1.1-4.5 1.5-1.9 4.2-1.9 18.3 0 27.3-3.7 9.4-3.8 9.4-19.1v-202.6q0-14.2-7.9-18-7.9-4.1-30-4.1-2.2 0-3.7-1.9-1.5-1.8-1.5-4.5 0-2.2 1.5-4.1 1.5-1.9 3.7-1.9 3 0 31.5 0.8 28.5 0.4 78.8 0.4 48 0 77.2-0.4 29.3-0.8 31.9-0.8 9.8 0 10.1 9 0 3.4 0.4 11.7 0.8 8.2 1.1 18 0.4 9.3 0.8 16.8 0.4 7.2 0.4 8.7 0 4.1-5.3 5.2-4.9 0.8-6.7-3.7-2.7-6.4-7.5-15-4.5-9-11.7-17.3-7.1-8.6-17.2-14.2-10.2-5.7-24.4-5.7h-80.3q-7.8 0-7.8 7.5v99q0 4.9 4.8 4.9h33q15.8 0 24-6 8.7-6 12.8-13.9 4.1-8.2 6.7-14.6 2.3-5.2 6.8-5.2 5.2 0 5.2 5.2 0 4.5-0.3 17.3-0.4 12.7-0.4 24 0 7.1 0 16.5 0.4 9 0.4 16.5 0.3 7.1 0.3 10.1 0 5.2-5.2 5.2-2.6 0-4.1-1.1-1.5-1.5-2.7-3.7-2.6-6.8-6.7-15.4-4.1-8.6-12.8-15-8.2-6.4-24-6.4h-33q-4.8 0-4.8 4.9v93.8q0 15.3 9 19.1 9.3 3.7 31.1 3.7 2.6 0 3.7 1.9 1.5 1.9 1.5 4.5 0 2.2-1.5 4.1-1.1 1.9-3.7 1.9-3.8 0-18.4-0.4-14.6-0.4-38.6-0.4-23.6 0-36.4 0.4-12.6 0.4-16.8 0.4-2.7 0-4.2-1.9zm256.6 1.9q-2.6 0-4.1-1.9-1.1-1.9-1.1-4.1 0-2.6 1.1-4.5 1.5-1.9 4.1-1.9 16.5 0 25.9-3.7 9.7-3.8 9.7-19.2v-202.5q0-14.2-9-18-8.6-4.1-25.1-4.1-2.6 0-4.1-1.9-1.1-1.8-1.1-4.5 0-2.2 1.1-4.1 1.5-1.9 4.1-1.9 3 0 29.6 0.8 26.7 0.4 76.9 0.4 48 0 74.3-0.4 26.6-0.8 29.2-0.8 9.8 0 10.1 9 0 3.4 0.4 10.9 0.4 7.1 0.8 15.4 0.3 7.9 0.7 14.2 0.4 6 0.4 7.5 0 4.2-5.3 5.3-4.5 0.7-6.7-3.8-4.9-9-12-19.5-6.8-10.5-18.4-18-11.2-7.5-30-7.5h-74.6q-7.9 0-7.9 7.5v100.5q0 4.9 4.9 4.9h28.5q15.7 0 24.4-5.6 8.6-6 12.7-13.9 4.1-8.2 6.8-15 1.8-4.9 6.3-4.9 5.3 0 5.3 5.3 0 2.6 0 9.7 0 7.2-0.4 15.8 0 8.2 0 15.7 0 7.2 0 16.2 0.4 9 0.4 16.5 0 7.1 0 10.1 0 5.6-5.3 5.6-4.5 0-6.7-5.2-2.6-6.4-6.8-15-4.1-8.7-12.7-15-8.3-6.4-24-6.4h-28.5q-4.9 0-4.9 4.9v106.1q0 7.9 8.3 7.9h69q18.3 0 30.7-6 12.4-6.4 20.3-15.4 8.2-9 12.7-18.4 4.9-9.3 7.5-16.1 1.1-3 3-3.4 2.3-0.7 4.1-0.3 4.9 0.3 4.9 5.2 0 1.5-0.4 9 0 7.5 0 17.3 0 9.7-0.3 18 0 8.2 0 11.6-0.8 11.6-11.7 11.6-2.2 0-13.1 0-10.9-0.4-33.4-0.4-22.1-0.3-59.2-0.3-31.1 0-55.5 0.3-24 0-38.6 0.4-14.7 0-17.3 0zm327.8 0q-2.3 0-3.8-1.9-1.5-1.8-1.5-4.1 0-2.6 1.5-4.5 1.5-1.9 3.8-1.9 7.8 0 15.3-0.7 7.9-1.1 12.8-5.6 5.2-4.5 5.2-15v-75.8q0-5.6-3.3-12-2.7-4.9-8.7-15-5.6-10.1-13.1-22.9-7.5-13.1-15.4-26.6-7.8-13.5-15-25.1-6.7-12-11.2-19.9-7.1-12.4-12.4-18.8-5.2-6.3-11.2-8.2-6-2.3-15.4-2.3-5.3 0-5.3-6 0-6 5.3-6 3.7 0 16.1 0.4 12.4 0.4 26.6 0.4 16.5 0 29.3-0.4 13.1-0.4 15.7-0.4 5.3 0 5.3 6 0 6-5.3 6-12 0-16.5 5.3-4.5 4.9 1.5 15.7 3 6 9 16.9 6 10.5 13.2 23.7 7.5 12.7 14.6 25.5 7.1 12.3 12.4 22.1 5.6 9.7 8.2 13.8 1.1 1.9 3 2.3 1.9 0 3.4-2.6 8.2-15 18-32.3 9.7-17.6 18.4-33.7 8.6-16.1 13.5-26.3 6-12-0.8-21-6.4-9.3-21.4-9.3-5.2 0-5.2-6 0-6 5.2-6 3.8 0 14.7 0.3 10.8 0.4 28.8 0.4 16.5 0 25.2-0.4 8.6-0.3 12.3-0.3 5.3 0 5.3 6 0 6-5.3 6-10.1 0-21.3 7.8-10.9 7.5-22.5 26.3-2.7 4.1-8.3 13.5-5.2 9.4-12.4 21.7-6.7 12.4-14.2 25.2-7.1 12.7-13.1 23.6-6 10.9-9.4 17.2-2.3 4.2-3.8 7.5-1.1 3-1.1 7.5v76.2q0 10.4 4.5 14.9 4.5 4.5 11.3 5.7 7.1 0.7 15 0.7 2.6 0 3.7 1.9 1.5 1.9 1.5 4.5 0 2.2-1.5 4.1-1.1 1.9-3.7 1.9-3.4 0-8.3-0.4-4.9-0.4-13.9-0.4-9-0.3-24.7-0.3-22.9 0-34.1 0.7-10.9 0.4-16.5 0.4zm193.8 0q-2.2 0-3.7-1.9-1.1-1.9-1.1-4.5 0-2.2 1.1-4.1 1.5-1.9 3.7-1.9 16.5 0 26.3-3.7 9.7-3.8 9.7-19.5v-202.2q0-14.2-7.8-18.3-7.9-4.2-24.4-4.2-5.3 0-5.3-6 0-6 5.3-6 3 0 15.7 0.4 13.2 0.4 33 0.4 20.3 0 34.2-0.4 14.2-0.4 16.8-0.4 5.3 0 5.3 6 0 6-5.3 6-16.1 0-25.1 4.2-9 4.1-9 18.3v216.8q0 7.5 7.9 7.5h76.5q17.6 0 29.2-5.3 11.7-5.6 18.8-13.8 7.5-8.7 11.6-18.4 4.1-9.8 6.8-18.4 0.7-3 2.6-3.4 2.2-0.3 4.5 0 4.9 0.4 4.9 5.3 0 1.5-0.4 9 0 7.5-0.4 17.2 0 9.8-0.4 18 0 8.3 0 11.7 0 4.8-3 8.2-2.6 3.4-8.2 3.4-2.3 0-13.9-0.4-11.2-0.4-34.1-0.4-22.9-0.3-60.4-0.3-30.7 0-55.1 0.3-24 0-39 0.4-14.6 0.4-17.3 0.4zm255 0q-2.6 0-4.1-1.9-1.1-1.9-1.1-4.1 0-2.6 1.1-4.5 1.5-1.9 4.1-1.9 16.5 0 25.9-3.7 9.8-3.8 9.8-19.2v-202.5q0-14.2-9-18-8.7-4.1-25.2-4.1-2.6 0-4.1-1.9-1.1-1.8-1.1-4.5 0-2.2 1.1-4.1 1.5-1.9 4.1-1.9 3 0 29.7 0.8 26.6 0.4 76.8 0.4 48 0 74.3-0.4 26.6-0.8 29.2-0.8 9.8 0 10.2 9 0 3.4 0.3 10.9 0.4 7.1 0.8 15.4 0.4 7.9 0.7 14.2 0.4 6 0.4 7.5 0 4.2-5.2 5.3-4.5 0.7-6.8-3.8-4.9-9-12-19.5-6.7-10.5-18.4-18-11.2-7.5-30-7.5h-74.6q-7.9 0-7.9 7.5v100.5q0 4.9 4.9 4.9h28.5q15.8 0 24.4-5.6 8.6-6 12.7-13.9 4.2-8.2 6.8-15 1.9-4.9 6.4-4.9 5.2 0 5.2 5.3 0 2.6 0 9.7 0 7.2-0.4 15.8 0 8.2 0 15.7 0 7.2 0 16.2 0.4 9 0.4 16.5 0 7.1 0 10.1 0 5.6-5.2 5.6-4.5 0-6.8-5.2-2.6-6.4-6.7-15-4.2-8.7-12.8-15-8.2-6.4-24-6.4h-28.5q-4.9 0-4.9 4.9v106.1q0 7.9 8.3 7.9h69q18.4 0 30.7-6 12.4-6.4 20.3-15.4 8.2-9 12.7-18.4 4.9-9.4 7.5-16.1 1.2-3 3-3.4 2.3-0.7 4.2-0.4 4.8 0.4 4.8 5.3 0 1.5-0.3 9 0 7.5 0 17.2 0 9.8-0.4 18 0 8.3 0 11.7-0.8 11.6-11.6 11.6-2.3 0-13.2 0-10.8-0.4-33.3-0.4-22.2-0.4-59.3-0.4-31.1 0-55.5 0.4-24 0-38.6 0.4-14.6 0-17.3 0zm381.8 4.5q-14.6 0-30-4.1-15.4-4.2-27.8-9-12-4.9-17.6-7.2-8.6-4.1-15 1.9-2.6 2.6-5.6 5.3-3 2.2-4.9 4.1-3.7 3-7.1 1.9-3.4-1.5-3.4-6v-68.3q0-4.5 4.9-5.2 4.9-1.2 6 3 6.7 19.8 22.1 35.6 15.8 15.4 36.8 24 21 8.6 43.8 8.6 19.5 0 33.4-8.2 14.3-8.7 22.1-21 7.9-12.8 7.9-24.8 0-18.4-9.4-29.2-9.3-10.9-24.7-16.9-15.4-6-33.8-9.8-18.3-4.1-36.7-8.6-18.4-4.9-33.8-12.7-15.3-8.3-24.7-22.5-9.4-14.3-9.4-37.5 0-21.4 10.1-38.3 10.5-16.9 29.7-26.6 19.1-9.8 46.1-9.8 11.6 0 24 3.4 12.7 3 23.6 7.5 10.9 4.1 16.5 7.5 8.6 4.9 14.3 0.4 1.8-1.9 4.1-3.4 2.2-1.9 3.7-3 3.8-2.6 6.8-1.1 3.4 1.5 3.4 6v60q0 4.5-4.9 5.6-4.9 0.8-6.4-3-7.1-18.7-19.5-33.7-12.4-15-28.9-23.7-16.5-9-36.7-9-16.1 0-29.6 6.8-13.5 6.4-21.8 18-7.9 11.6-7.9 26.6 0 17.3 9.4 27.4 9.4 9.7 24.8 15.4 15.3 5.6 33.7 9.7 18.8 3.8 37.1 8.6 18.8 4.9 34.2 13.9 15.3 9 24.7 24.4 9.4 15.4 9.4 40.5 0 18-8.3 32.2-8.2 14.3-21.7 24.4-13.5 9.8-30 15-16.5 4.9-33 4.9zm247.5 0q-24.4 0-45.8-9.8-21.3-9.7-37.8-28.1-16.2-18.7-25.5-44.6-9.4-25.9-9.4-57.8 0-32.2 9.7-58.1 9.8-25.9 26.3-44.2 16.9-18.8 37.9-28.5 21.3-10.2 44.6-10.2 23.2 0 44.6 10.2 21.4 9.7 37.9 28.5 16.9 18.3 26.6 44.2 9.8 25.9 9.8 58.1 0 31.9-9.4 57.8-9.4 25.9-25.9 44.6-16.1 18.4-37.9 28.1-21.3 9.8-45.7 9.8zm0-13.1q20.6 0 38.2-11.7 18-12 28.9-39.7 11.3-27.8 11.3-75.8 0-48-11.3-75.7-10.9-28.1-28.9-39.8-17.6-12-38.2-12-20.3 0-38.3 12-17.6 11.7-28.8 39.8-10.9 27.7-10.9 75.7 0 48 10.9 75.8 11.2 27.7 28.8 39.7 18 11.7 38.3 11.7zm142.9 8.6q-2.7 0-4.2-1.9-1.1-1.9-1.1-4.1 0-2.6 1.1-4.5 1.5-1.9 4.2-1.9 18.3 0 27.3-3.7 9.4-3.8 9.4-19.2v-202.5q0-14.2-7.9-18-7.8-4.1-30-4.1-2.2 0-3.7-1.9-1.5-1.8-1.5-4.5 0-2.2 1.5-4.1 1.5-1.9 3.7-1.9 3 0 31.5 0.8 28.5 0.4 78.8 0.4 48 0 77.2-0.4 29.3-0.8 31.9-0.8 9.8 0 10.1 9 0 3.4 0.4 11.7 0.8 8.2 1.1 18 0.4 9.3 0.8 16.8 0.4 7.2 0.4 8.7 0 4.1-5.3 5.2-4.9 0.8-6.7-3.7-2.7-6.4-7.5-15-4.5-9-11.7-17.3-7.1-8.6-17.2-14.2-10.1-5.7-24.4-5.7h-80.2q-7.9 0-7.9 7.5v99q0 4.9 4.9 4.9h33q15.7 0 24-6 8.6-6 12.7-13.9 4.1-8.2 6.8-14.6 2.2-5.2 6.7-5.2 5.3 0 5.3 5.2 0 4.5-0.4 17.3-0.4 12.7-0.4 24 0 7.1 0 16.5 0.4 9 0.4 16.5 0.4 7.1 0.4 10.1 0 5.2-5.3 5.2-2.6 0-4.1-1.1-1.5-1.5-2.6-3.7-2.7-6.8-6.8-15.4-4.1-8.6-12.7-15-8.3-6.4-24-6.4h-33q-4.9 0-4.9 4.9v93.7q0 15.4 9 19.2 9.4 3.7 31.1 3.7 2.6 0 3.8 1.9 1.5 1.9 1.5 4.5 0 2.2-1.5 4.1-1.2 1.9-3.8 1.9-3.7 0-18.4-0.4-14.6-0.4-38.6-0.4-23.6 0-36.4 0.4-12.7 0.4-16.8 0.4zm323.6 0q-2.3 0-3.8-1.9-1.5-1.9-1.5-4.1 0-2.6 1.5-4.5 1.5-1.9 3.8-1.9 7.9 0 15.4-0.7 7.8-1.2 12.7-5.7 5.3-4.5 5.3-15v-75.7q0-5.6-3.4-12-2.6-4.9-8.6-15-5.7-10.1-13.2-22.9-7.5-13.1-15.3-26.6-7.9-13.5-15-25.1-6.8-12-11.3-19.9-7.1-12.4-12.4-18.8-5.2-6.3-11.2-8.2-6-2.3-15.4-2.3-5.2 0-5.2-6 0-6 5.2-6 3.8 0 16.1 0.4 12.4 0.4 26.7 0.4 16.5 0 29.2-0.4 13.1-0.4 15.8-0.4 5.2 0 5.2 6 0 6-5.2 6-12 0-16.5 5.3-4.5 4.9 1.5 15.7 3 6 9 16.9 6 10.5 13.1 23.6 7.5 12.8 14.6 25.5 7.1 12.4 12.4 22.2 5.6 9.7 8.2 13.8 1.2 1.9 3 2.3 1.9 0 3.4-2.6 8.3-15 18-32.3 9.8-17.6 18.4-33.7 8.6-16.2 13.5-26.3 6-12-0.8-21-6.3-9.4-21.3-9.4-5.3 0-5.3-6 0-6 5.3-6 3.7 0 14.6 0.4 10.9 0.4 28.9 0.4 16.5 0 25.1-0.4 8.6-0.4 12.4-0.4 5.2 0 5.2 6 0 6-5.2 6-10.2 0-21.4 7.9-10.9 7.5-22.5 26.3-2.6 4.1-8.3 13.5-5.2 9.3-12.3 21.7-6.8 12.4-14.3 25.1-7.1 12.8-13.1 23.7-6 10.8-9.4 17.2-2.2 4.1-3.7 7.5-1.2 3-1.2 7.5v76.1q0 10.5 4.5 15 4.5 4.5 11.3 5.7 7.1 0.7 15 0.7 2.6 0 3.7 1.9 1.5 1.9 1.5 4.5 0 2.2-1.5 4.1-1.1 1.9-3.7 1.9-3.4 0-8.3-0.4-4.8-0.4-13.8-0.4-9-0.3-24.8-0.3-22.9 0-34.1 0.7-10.9 0.4-16.5 0.4zm158.2 0q-2.6 0-4.1-1.9-1.1-1.9-1.1-4.5 0-2.2 1.1-4.1 1.5-1.9 4.1-1.9 10.9 0 18.4-6 7.9-6 13.9-17.2 2.6-4.9 7.9-18.8 5.6-13.9 12.7-33.7 7.5-20.3 15.8-43.2 8.2-22.8 16.1-45.3 8.2-22.9 15-42.4 7.1-19.5 11.6-32.6 4.9-13.5 6.4-17.3 1.9-4.5 4.5-6 2.6-1.9 9.7-1.9 11.3 0 13.5 7.2 1.5 4.8 6.8 20.6 5.6 15.7 13.5 38.2 7.9 22.5 16.5 47.7 9 25.1 17.2 49.1 8.7 24 15.4 42.7 6.8 18.4 10.1 27.4 5.3 13.1 11.7 22.5 6.7 9 19.1 9 2.2 0 3.7 1.9 1.5 1.9 1.5 4.1 0 2.6-1.5 4.5-1.5 1.9-3.7 1.9-3.8 0-13.5-0.4-9.4-0.7-28.9-0.7-16.1 0-27 0.7-10.9 0.4-15 0.4-2.6 0-4.1-1.9-1.1-1.9-1.1-4.5 0-2.2 1.1-4.1 1.5-1.9 4.1-1.9 15.4 0 19.1-4.5 3.8-4.5-0.3-18-0.4-1.1-0.8-2.6-0.4-1.5-1.9-6-1.5-4.9-4.8-15-3.4-10.5-9.8-29.6-1.5-4.9-6.7-4.9h-94.2q-3.3 0-4.5 3.4-2.6 7.8-6 18.3-3 10.5-5.2 20.3-2.3 9.7-2.3 15.4 0 10.8 6.4 17.2 6.8 6 15.8 6 2.6 0 3.7 1.9 1.5 1.9 1.5 4.1 0 2.6-1.5 4.5-1.1 1.9-3.7 1.9-3.8 0-12.8-0.4-9-0.7-25.5-0.7-14.2 0-24.4 0.7-9.7 0.4-13.5 0.4zm78.4-106.5h82.9q1.9 0 3-1.1 1.5-1.2 0.7-3.8-5.6-17.2-12-36.4-6.3-19.1-12.3-36.3-5.7-17.3-10.2-29.7-4.1-12.7-5.6-16.5-1.5-3.7-3.7-3.3-1.9 0-3.4 3-1.1 2.6-5.3 13.1-3.7 10.1-9 24.7-4.8 14.3-10.5 30-5.6 15.4-10.5 29.3-4.5 13.5-7.5 22.1-1.8 4.9 3.4 4.9z"/>
</svg>