<svg xmlns="http://www.w3.org/2000/svg" xmlns:svgjs="http://svgjs.com/svgjs" xmlns:xlink="http://www.w3.org/1999/xlink" width="288" height="288"><svg xmlns="http://www.w3.org/2000/svg" width="288" height="288" viewBox="0 0 752 752"><path fill="#fff" d="m241.96 455.4c-0.63672 0.003906-1.2656-0.12109-1.8516-0.36719-1.1289-0.48438-2.0195-1.3945-2.4766-2.5352-0.45703-1.1406-0.44141-2.4141 0.042969-3.543 5.7812-13.477 4.8359-21.93-15.957-39.449-13.727-11.555-15.723-23.707-13.949-32.477l-7.0156 1.75c-0.1875 0.046875-0.375 0.082031-0.56641 0.10156-7.0938 0.83203-12.367-0.80469-15.723-4.8828-5.7891-7.1133-2.3047-18.305-1.8516-19.555l10.469-32.375c-4.2461-5.3477-7.7695-13.145-8.2148-14.133-9.9414-22.984-18.129-56.422-0.73828-85.402h0.003906c5.9453-9.9531 14.246-18.285 24.176-24.27 2.7734-7.2891 15.066-33.227 51.91-43.75 16.594-4.7461 37.387-7.1484 55.629-6.4766 25.465 0.98047 46.25 7.3984 61.891 19.211 20.465 15.438 30.836 39.328 30.836 70.98 0 2.5547-2.0703 4.625-4.625 4.625-2.5547 0-4.625-2.0703-4.625-4.625 0-28.59-9.1367-49.949-27.156-63.582-32.328-24.336-85.699-18.016-109.41-11.238-37.09 10.594-45.852 38.223-46.246 39.387-0.36719 1.2344-1.2266 2.2578-2.3789 2.832-9.2344 5.2578-16.926 12.852-22.301 22.023-12.098 20.508-11.59 46.25 1.5156 76.531 1.1641 2.6172 4.957 10.238 8.2227 13.504 1.2188 1.2227 1.6562 3.0234 1.1289 4.6719l-11.293 34.961c-0.80469 2.4688-1.7852 8.3242 0.27734 10.84 1.4258 1.75 4.625 1.8516 7.1406 1.5547l15.594-3.8828c1.8906-0.46875 3.8672 0.30078 4.9531 1.9141 1.082 1.6172 1.0352 3.7383-0.11328 5.3086-0.98047 1.3984-9.332 14.375 8.4453 29.34 22.254 18.738 26.75 30.93 18.5 50.172-0.71875 1.7109-2.3906 2.8281-4.2461 2.8359z" class="color000 svgShape"/><path fill="#fff" d="M333.87 358.9c-.41016 0-.8125-.054688-1.2031-.16797-1.1875-.31641-2.1953-1.0938-2.8086-2.1562s-.77734-2.3281-.45703-3.5117c.67578-2.5156 1.2227-5.9023 0-7.7344-1.7852-2.6367-7.8438-3.3281-13.707-4.0039-4.1133-.34766-8.1875-1.0625-12.176-2.1367-4.7344-1.4414-10.629-3.7734-14.172-9-3.543-5.2266-3.9414-12.754-.92578-19.527 2.6367-5.957 7.0312-10.176 11.273-14.309 4.0625-3.9141 7.8906-7.6133 9.6094-12.395 3.0156-8.3242 1.4883-18.676-7.2422-22.254s-20.793-2.6719-29.07-.60156c-12.645 3.125-38.23 3.1172-44.641-19.305-7.7422-26.953 10.152-40.094 10.914-40.613 2.0586-1.2344 4.7227-.6875 6.125 1.2617 1.4062 1.9453 1.0859 4.6445-.73438 6.2109-.60938.45312-13.293 10.176-7.457 30.598 5.5508 19.508 32.375 13.152 33.504 12.867 4.6992-1.1758 21.137-4.5781 34.816 1.0273 6.4648 2.6211 11.359 8.082 13.254 14.797 1.7656 6.3125 1.4805 13.02-.8125 19.156-2.4492 6.8086-7.25 11.434-11.887 15.918-3.7734 3.6445-7.3438 7.0859-9.25 11.395-1.6914 3.8203-1.6289 7.9648.14062 10.582 1.9258 2.8398 5.9375 4.3477 9.25 5.3555v.003907c3.4492.89453 6.9727 1.4922 10.523 1.7852 7.9258.92578 16.133 1.8516 20.348 8 2.6172 3.8477 3.043 8.8711 1.2969 15.336-.54687 2.0352-2.4062 3.4453-4.5117 3.4219zM215.06 601.69h-61.047c-1.2461 0-2.4414-.5-3.3125-1.3945-.87109-.89062-1.3438-2.0938-1.3125-3.3398 0-.43359 1.0156-44.344 0-71.695-1.0625-28.676 9.3125-49.781 9.7578-50.668.23047-.45312 22.707-45.426 28.785-58.598 6.5391-14.16 19.996-19.184 22.145-19.906l4.9844-2.1445c2.3477-1.0195 5.082.054688 6.1055 2.4062 1.0195 2.3477-.054687 5.082-2.4062 6.1055l-5.2266 2.2188c-.14844.0625-.29688.11719-.45312.16406-.10156 0-11.543 3.7734-16.742 15.031-6.1406 13.309-27.98 57.004-28.906 58.855-6.3555 14.543-9.3633 30.332-8.793 46.195.83203 22.281.33203 55.332.10156 67.523l51-.003906-8.5078-60.398c-.18359-1.2344.13672-2.4883.89062-3.4805s1.875-1.6406 3.1133-1.793c.98828-.14062 25.141-4.0508 21.867-44.988-.082031-.94141.13281-1.8789.60938-2.6914 1.9805-3.4297 5.1328-10.223 5.1328-13.801 0-1.6055.83203-3.0938 2.1953-3.9375 1.3672-.83984 3.0703-.91797 4.5039-.19922 6.9492 3.1445 14.383 5.0742 21.984 5.707 2.293.17969 4.1055 2.0156 4.2539 4.3125l2.0625 30.902c.03125.25391.03125.51172 0 .76562-.011719 1.2031.41406 2.3711 1.1953 3.2852 1.5156 1.6016 4.4023 1.9336 6.5664 1.9336 8.4258 0 9.6367-7.3984 9.8047-9.0938.10156-1.9609 1.5898-33.297-.69531-46.117-2.6094-1.7305-10.312-5.9102-24.797-6.6328-2.5547-.12891-4.5195-2.3008-4.3945-4.8555.12891-2.5547 2.3047-4.5195 4.8594-4.3945 22.031 1.1016 31.281 9.4883 31.672 9.8516h-.003907c.67188.625 1.1406 1.4297 1.3516 2.3203 3.1094 13.227 1.3242 48.875 1.25 50.383-.007813.042969-.007813.082031 0 .12109-.47266 6.1055-5.0586 17.656-19.035 17.656-5.9102 0-10.441-1.6914-13.477-5.043l-.003906.003906c-2.3867-2.7188-3.6484-6.2461-3.5234-9.8594l-1.7852-26.75c-5.3945-.75-10.695-2.0586-15.816-3.9141-1.1758 3.7109-2.707 7.2969-4.5703 10.711.92578 14.031-.72266 32.66-13.059 44.594-3.5352 3.4297-7.7656 6.0625-12.402 7.7148l8.7031 61.668c.1875 1.332-.21484 2.6836-1.1016 3.6953-.89062 1.0117-2.1758 1.5898-3.5234 1.5742zM224.5 327.02c-1.8086.011718-3.6133-.12109-5.3984-.40625-2.4961-.47266-4.1445-2.8672-3.6953-5.3672.45312-2.5 2.8359-4.168 5.3398-3.7344.10938 0 10.691 1.7852 17.074-4.1055 1.8906-1.6133 4.7148-1.4453 6.3984.37891 1.6875 1.8242 1.6289 4.6523-.125 6.4102-6.1992 5.7344-14.309 6.8242-19.594 6.8242z" class="color000 svgShape"/><path fill="#fff" d="M196.34 537.62c-5.5312.007812-10.98-1.3672-15.844-4.0078-2.1641-1.25-2.9414-3.9922-1.7578-6.1953 1.1875-2.1992 3.9062-3.0586 6.1406-1.9414 5.8867 3.2031 12.844 3.7969 19.184 1.6367 2.3633-.97266 5.0664.15234 6.043 2.5156.97266 2.3633-.15625 5.0664-2.5156 6.0391-3.6016 1.332-7.4141 1.9922-11.25 1.9531zM433.62 333.63h-.16797.003907c-2.5547-.042968-4.5898-2.1484-4.5469-4.7031.042969-2.5547 2.1484-4.5898 4.7031-4.5469.066406 0 11.516 0 18.609-7.4648 4.4102-4.625 6.3711-11.422 5.8281-20.109-.37891-6.1133-2.3945-10.766-6.0039-13.828-6.3086-5.3633-15.723-4.625-15.855-4.625h.003907c-2.543.25781-4.8086-1.5977-5.0664-4.1367-.25391-2.543 1.5977-4.8086 4.1406-5.0664.54687-.054688 13.395-1.2227 22.762 6.7422 5.5508 4.7539 8.6953 11.582 9.25 20.293.71094 11.406-2.1172 20.535-8.418 27.129-9.5078 10-23.492 10.316-25.242 10.316zM598.92 601.69h-354.06c-2.5547 0-4.625-2.0703-4.625-4.625v-19.625c0-58.883 20.543-71.094 22.883-72.297l4.207 8.2305h.09375c-.046875 0-4.4414 2.6094-8.8242 11.598-4.1523 8.5-9.1094 24.52-9.1094 52.512v14.957h344.81l.14062-173.84-.14062-77.754c0-2.5547 2.0703-4.625 4.625-4.625 1.2266 0 2.4023.48828 3.2695 1.3555.86719.86719 1.3555 2.043 1.3555 3.2695l.14062 77.754-.14062 178.46c0 1.2266-.48828 2.4023-1.3555 3.2695-.86719.87109-2.043 1.3555-3.2695 1.3555z" class="color000 svgShape"/><path fill="#fff" d="M489.09 370.45c-17.305 0-28.176-5.9922-28.832-6.3711-39.867-22.957-39.152-65.535-39.098-67.336v-.003906c.03125-1.0586.42188-2.0742 1.1133-2.8789 6.9375-8.1016 10.223-18.871 8.5664-28.109-1.3672-7.5859-5.875-13.707-13.051-17.695-17.656-9.8047-31.367 1.6562-31.504 1.7656l-.003906.003906c-1.9414 1.6289-4.832 1.3906-6.4844-.53125-1.6484-1.9258-1.4414-4.8203.46484-6.4883.75781-.64844 18.797-15.723 42.02-2.832 9.6836 5.3828 15.789 13.727 17.656 24.152 2.0703 11.555-1.4805 24.289-9.5195 34.391.21094 7.3984 3.0078 39.441 34.426 57.531.16797.082031 20.348 11.016 49.199.58203h.003907c2.4023-.86719 5.0547.375 5.9258 2.7812.86719 2.4023-.37891 5.0547-2.7812 5.9219-8.9961 3.3281-18.508 5.0586-28.102 5.1172zM363.5 601.69c-2.4141.007813-4.4297-1.8438-4.625-4.2539-2.3594-29.211 6.7344-59.633 7.1133-60.91.74219-2.4453 3.3242-3.8281 5.7734-3.0898 2.4453.74219 3.8281 3.3281 3.0898 5.7734-.09375.29687-8.9727 30.062-6.7617 57.488.21094 2.5391-1.668 4.7734-4.2109 4.9922zM182.82 293.34c-1.7227 0-3.3047-.95703-4.0977-2.4883-2.582-4.9375-2.6914-14.375 2.1719-22.117 3.9141-6.2344 12.238-13.531 29.684-12.949 7.3242.24219 12.367-1.3594 14.992-4.7461 4.0234-5.1992 1.7305-13.551 1.7031-13.633v.003906c-.71875-2.4531.6875-5.0234 3.1406-5.7422 2.4492-.71484 5.0195.69141 5.7383 3.1406.15625.51953 3.6992 12.949-3.2734 21.895-4.543 5.8633-12.145 8.668-22.598 8.3242s-17.785 2.6562-21.551 8.6484c-3.2656 5.1875-2.7734 11.098-1.8516 12.949.75 1.4336.69922 3.1562-.14062 4.543-.83594 1.3828-2.3359 2.2305-3.957 2.2305zM214.13 311.25c-2.0508.003906-3.8555-1.3398-4.4414-3.3047-.58594-1.9609.19141-4.0781 1.9062-5.1953.92578-.62109 23.688-15.168 45.211-4.9219h.003906c1.1914.46875 2.1406 1.4141 2.6094 2.6094.47266 1.1953.42578 2.5312-.12891 3.6914-.55469 1.1562-1.5625 2.0352-2.7891 2.418-1.2266.38281-2.5547.24219-3.6719-.39453-16.789-7.9922-36 4.207-36.195 4.3281h.003906c-.74219.49609-1.6133.76562-2.5078.76953zM537.87 278.88c-1.2266.089844-2.4375-.3125-3.3672-1.1172-.92969-.80469-1.5039-1.9453-1.5938-3.1719-.18359-2.5547 1.7383-4.7734 4.293-4.9609 33.086-4.8086 57.09-28.941 57.09-57.348 0-32.133-31.531-58.273-70.297-58.273s-70.297 26.141-70.297 58.273c0 22.617 16.031 43.391 40.828 52.906v.003906c2.3828.91406 3.5781 3.5898 2.6641 5.9766-.91406 2.3828-3.5898 3.5781-5.9766 2.6602-28.414-10.902-46.766-35.062-46.766-61.547 0-37.23 35.684-67.523 79.547-67.523 43.863 0 79.547 30.293 79.547 67.523 0 33.039-27.332 61.047-64.988 66.531v.003906c-.22656.039063-.45703.0625-.68359.0625zM312.84 493.36c-7.1328 0-13.078-2.9336-16.879-8.3711-6.0039-8.5938-5.8633-22.09.35938-36.074 2.1914-4.9375 2.4062-8.8594.63672-12.023-3.0352-5.3633-11.711-8.2305-18.812-9.1211-13.551-1.6914-21.273-8.1758-23.566-37.555-.60938-7.8906-2.8672-13.09-6.6953-15.43-5.5508-3.3867-13.246-.23047-13.32-.19531v.003906c-2.3516 1.0039-5.0664-.089844-6.0703-2.4414-1-2.3477.09375-5.0664 2.4453-6.0664.48828-.21094 12.078-5.0586 21.699.76953 6.5586 3.9688 10.312 11.59 11.164 22.66 2.1094 27.406 8.6016 28.219 15.492 29.082 5.8086.72266 19.941 3.5156 25.715 13.754 3.2656 5.7617 3.1836 12.59-.24219 20.285-4.7461 10.691-5.2266 21.273-1.2227 27.047 2.2461 3.2188 5.7734 4.6914 10.48 4.375v-.003906c2.5547-.16797 4.7617 1.7656 4.9297 4.3203.17188 2.5547-1.7617 4.7617-4.3164 4.9297-.61328.039062-1.2031.054687-1.7969.054687z" class="color000 svgShape"/><path fill="#fff" d="M391.26 601.69c-2.0469 0-3.8516-1.3516-4.4336-3.3164-.57812-1.9688.20703-4.0781 1.9297-5.1914 34.148-22.016 61.73-49.023 81.969-80.176 16.27-25.172 27.906-53.055 34.363-82.324 11.285-50.52 4.2539-89.562 4.1797-89.953v.003906c-.44922-2.4336 1.0898-4.7852 3.4961-5.3477 56.422-13.164 86.43.65625 87.676 1.2578h.003906c2.0781 1.207 2.8828 3.8125 1.8516 5.9844-1.0352 2.1719-3.5625 3.1914-5.8125 2.3398-.27734-.12891-27.176-12.285-77.438-1.5352 1.582 11.887 4.625 46.25-4.9297 89.242-6.6992 30.328-18.766 59.215-35.629 85.297-20.961 32.301-49.457 60.195-84.719 82.914-.73828.50781-1.6094.78516-2.5078.80469zM513.82 304.78c-15.809 0-28.676-11.203-28.676-24.973h.003907c.023437-5.6172 2.1211-11.023 5.8906-15.188.80078-.94922 1.9531-1.5352 3.1914-1.6289s2.4609.31641 3.3945 1.1367 1.5 1.9844 1.5664 3.2227c.066406 1.2422-.36719 2.457-1.207 3.375-2.2734 2.4805-3.5508 5.7148-3.5859 9.082 0 8.668 8.7148 15.723 19.426 15.723 10.711 0 19.426-7.0586 19.426-15.723h-.003906c.11328-2.7539-.62891-5.4766-2.1211-7.7969-1.3125-2.1914-.59766-5.0312 1.5938-6.3438s5.0312-.60156 6.3438 1.5898c2.3594 3.7539 3.5547 8.1211 3.4336 12.551 0 13.773-12.867 24.973-28.676 24.973zM486.07 341.35c-10.711 0-19.426-7.6953-19.426-17.148s8.7148-17.148 19.426-17.148c10.711 0 19.426 7.6953 19.426 17.148s-8.7148 17.148-19.426 17.148zm0-25.047c-5.6133 0-10.176 3.543-10.176 7.8984s4.5586 7.8984 10.176 7.8984c5.6133 0 10.176-3.543 10.176-7.8984s-4.5586-7.8984-10.176-7.8984zM551.18 233.56c-6.1406.035156-12.098-2.0938-16.824-6.0156-.12109-.09375-.22266-.19531-.33203-.29688l-10.027-10.219-10.047 10.23c-.10156.10156-.20312.20313-.31641.29688h.003907c-4.7305 3.9102-10.688 6.0352-16.824 6.0039-13.793 0-24.973-10.367-24.973-23.125 0-12.754 11.219-23.125 24.973-23.125 6.4609-.050782 12.711 2.3125 17.527 6.625l.19531.18359 9.5078 9.7109 10.312-10.48c.125-.125.25781-.24609.39844-.35938 4.668-3.707 10.465-5.707 16.426-5.6797 13.793 0 24.973 10.367 24.973 23.125 0 12.754-11.18 23.125-24.973 23.125zm-10.711-12.949c3.0352 2.4297 6.8203 3.7383 10.711 3.6992 8.6836 0 15.723-6.2266 15.723-13.875 0-7.6484-7.0742-13.875-15.723-13.875-3.7656-.03125-7.4375 1.1953-10.434 3.4766l-10.23 10.398zm-43.66-24.051c-8.6836 0-15.723 6.2266-15.723 13.875 0 7.6484 7.0742 13.875 15.723 13.875h.003906c3.8867.039062 7.6719-1.2695 10.711-3.6992l9.9961-10.176-9.5273-9.7227c-3.0898-2.7109-7.0703-4.1875-11.18-4.1523zM463.57 601.69c-2.0352 0-3.8281-1.3281-4.4219-3.2734-.59375-1.9492.15234-4.0547 1.8438-5.1875 39.496-26.527 57.531-77.633 57.707-78.141.39844-1.1641 1.2461-2.1172 2.3477-2.6523 1.1016-.53906 2.375-.61719 3.5352-.21875 2.418.83594 3.6992 3.4688 2.8672 5.8828-.76953 2.2109-19.184 54.516-61.305 82.801v.003906c-.75781.51562-1.6562.78906-2.5742.78516zM351.28 520.83c-1.6484 0-3.1719-.87891-4-2.3047-.82422-1.4258-.83203-3.1836-.015625-4.6133 3.9297-6.8828 4.9492-14.145 2.7734-19.934-2.1719-5.7891-7.0859-9.9258-14.734-12.605-18.695-6.5391-15.723-25.277-14.801-31.449l.12891-.83984c1.9336-12.328 3.6055-22.977-4.543-32.227-3.8008-4.3008-8.3242-5.6055-13.605-7.1133-3.9688-1.1367-8.4727-2.4219-12.773-5.1992-9.0742-5.8477-9.3047-16.281-9.5195-25.473-.26953-12.023-1.1211-16.703-9.1016-17.945h.007812c-2.5-.42188-4.1953-2.7695-3.8047-5.2734.39063-2.5039 2.7188-4.2266 5.2266-3.8672 16.383 2.5547 16.695 16.648 16.926 26.871.20312 9.1562.66406 14.938 5.2734 17.906 3.1523 2.0352 6.6328 3.0352 10.324 4.0898 5.8086 1.6641 12.402 3.5508 17.992 9.8867 11.027 12.504 8.8516 26.371 6.7422 39.773l-.12891.83203c-1.9531 12.441.48828 18.406 8.7031 21.273 12.949 4.5234 18.195 12.34 20.348 18.102 3.125 8.3711 1.8516 18.5-3.4219 27.75-.8125 1.4453-2.3359 2.3477-3.9961 2.3594zM349.95 416.34c-.27734-.003906-.55469-.027344-.83203-.074219-2.5039-.46875-4.1602-2.875-3.6992-5.3828.58203-3.2109 1.4062-11.406-3.5703-17.973-3.7734-4.9844-10.082-7.9375-18.75-8.7578-9-.85938-15.328-4.1445-18.797-9.7773-5.2891-8.5938-1.332-19.047-1.1562-19.48h.003906c.91797-2.3828 3.5977-3.5703 5.9805-2.6523 2.3828.92187 3.5664 3.5977 2.6484 5.9805-.066406.16797-2.4492 6.7227.42578 11.34 1.8516 2.9961 5.8359 4.8086 11.773 5.375 11.324 1.0625 19.824 5.2539 25.195 12.387 5.0586 6.6875 6.9922 15.883 5.2891 25.215h.003906c-.39453 2.1875-2.293 3.7812-4.5156 3.8008z" class="color000 svgShape"/><path fill="#fff" d="M390.48 490.92c-.21484 0-.42578-.015625-.63672-.046875-.59375-.082032-14.625-2.1641-22.367-15.242-6.8711-11.59-6.4766-27.637 1.1484-47.711 6.1055-16.074 6.6055-29.711 1.4688-40.531-6.4766-13.688-20.117-18.359-20.258-18.406h.003907c-2.4297-.79297-3.7578-3.4062-2.9609-5.8359.79297-2.4297 3.4062-3.7539 5.8359-2.9609.70312.23047 17.398 5.8281 25.668 23.125 6.3281 13.219 5.9492 29.34-1.1211 47.941-6.5781 17.297-7.1875 30.652-1.8516 39.699 5.5039 9.25 15.578 10.785 15.68 10.805 2.3984.33984 4.1289 2.4766 3.9648 4.8906-.16797 2.418-2.168 4.3008-4.5938 4.3125zM411.84 459.3c-.85938-.003907-1.7031-.24609-2.4336-.70313-12.746-7.918-16.105-23.301-9.9883-45.723 4.7188-17.305 3.2734-30.848-4.3008-40.234-3.168-3.9727-7.3633-7.0039-12.129-8.7695-2.4531-.71094-3.8633-3.2812-3.1523-5.7344.71094-2.4531 3.2812-3.8672 5.7344-3.1562 6.5938 2.2891 12.402 6.4023 16.75 11.859 11.875 14.734 9.832 34.492 6.0117 48.469-4.9023 18.008-2.9062 29.934 5.957 35.434 1.7617 1.0898 2.582 3.2188 2.0117 5.207-.57031 1.9883-2.3906 3.3555-4.4609 3.3516zM408 316.61c-2.3477-.003906-4.3164-1.7695-4.582-4.1016-.26562-2.3359 1.2617-4.4961 3.5469-5.0273 5.6719-1.4766 10.203-5.7344 12.023-11.305.87891-2.5938 1.043-5.375.48047-8.0547-.55859-2.6797-1.8281-5.1602-3.6719-7.1875-4.5156-5.3359-13.773-5.3633-20.758-4.457h.003906c-5.2227.69922-10.359 1.9375-15.328 3.6992-2.3867.90625-5.0586-.29297-5.9648-2.6836-.90625-2.3867.29297-5.0586 2.6836-5.9648 1.3516-.51953 33.121-12.328 46.434 3.3945 5.8164 6.5938 7.6836 15.789 4.9023 24.133-2.875 8.6133-9.9375 15.172-18.742 17.398-.33594.089844-.67969.14453-1.0273.15625zM389.45 346.52c-.20312.011718-.40625.011718-.60938 0-2.5312-.33203-4.3125-2.6484-3.9883-5.1797.83203-6.3828 0-11.016-2.3789-13.762-4.1641-4.7344-13.586-4.7344-21.914-4.7344-6.4297 0-15.668-.85156-21.637-8.168-5.9648-7.3164-7.207-19.73-3.5234-37.617 2.4336-11.812 1.0898-20.746-4.0977-27.297-7.1484-9.0273-22.336-13.938-45.137-14.586-12.359-.35938-20.348-4.0039-23.707-10.859-5.5508-11.348 4.4844-25.805 5.6523-27.426l.003906-.003906c1.5-2.0664 4.3906-2.5312 6.4609-1.0312 2.0703 1.5 2.5312 4.3945 1.0312 6.4609-2.1094 2.9336-7.5195 12.516-4.8477 17.918 2.1719 4.3945 9.7227 5.5508 15.668 5.6875 26.027.73828 43.086 6.6602 52.133 18.094 6.8906 8.7148 8.8789 20.449 5.9023 34.906-3.043 14.801-2.4883 24.844 1.6367 29.902 2.6836 3.293 7.1484 4.7617 14.465 4.7617 9.7773 0 21.941 0 28.859 7.8789 4.3086 4.9023 5.8164 11.793 4.625 21.062v.003906c-.32031 2.293-2.2812 3.9961-4.5977 3.9883zM359.53 245.44c-2.4609.003906-4.4922-1.918-4.625-4.375-1.2109-22.367-14.113-24.281-29.055-26.492-7.2422-1.0742-14.727-2.1836-20.461-6.0117-4.8672-3.2383-7.7422-7.6758-8.3242-12.84-.55469-4.9297.92578-10.359 4.4219-16.121l.003906.003907c1.4922-2.4727 3.2148-4.7969 5.1406-6.9492 1.7461-1.8672 4.6758-1.9648 6.543-.21484 1.8672 1.7461 1.9648 4.6758.21875 6.543-2.2188 2.3672-7.8086 9.7852-7.1328 15.723.28516 2.4219 1.6758 4.4414 4.2656 6.168 4.0156 2.6719 10.176 3.5898 16.648 4.5586 14.902 2.2109 35.316 5.2344 36.934 35.148v.003907c.066406 1.2266-.35938 2.4258-1.1797 3.3398-.82031.91406-1.9688 1.4609-3.1953 1.5273zM379.12 220.69c-2.3047-.007812-4.2539-1.7109-4.5664-3.9961-2.0703-14.977-7.0586-15.723-15.316-17.027-5.6602-.87109-12.711-1.9609-18.574-8.3242-3.6133-3.668-5.3867-8.7617-4.8398-13.875.60156-5.125 3.4883-10.352 8.5664-15.52v-.003907c2.1797-2.2266 4.5664-4.2461 7.1211-6.0312 1.0156-.73828 2.2891-1.0352 3.5273-.81641 1.2383.21875 2.332.92969 3.0352 1.9727.69922 1.043.94922 2.3242.68359 3.5547-.26562 1.2266-1.0156 2.2969-2.0859 2.957-2.9961 2.0352-10.934 8.6758-11.664 14.977-.26953 2.3398.50781 4.4102 2.4492 6.5195 3.6992 3.9766 8.0859 4.625 13.191 5.4492 8.9336 1.3789 20.055 3.0977 23.059 24.898l.003906.003907c.32812 2.5156-1.4336 4.8281-3.9492 5.1797-.21094.039063-.42578.066406-.64062.082031z" class="color000 svgShape"/></svg></svg>