<svg xmlns="http://www.w3.org/2000/svg" xmlns:svgjs="http://svgjs.com/svgjs" xmlns:xlink="http://www.w3.org/1999/xlink" width="288" height="288"><svg xmlns="http://www.w3.org/2000/svg" width="288" height="288" viewBox="0 0 100 50"><path fill="none" stroke="#fff" strokeWidth="2" d="M79 25h16M31 15H5M32 35H5" class="colorStroke000 svgStroke"/><path fill="#fff" d="M30 5V45H50.47619c11.267908 0 20-9.000045 20-20s-8.732091-20-20-20H30zm2.857143 2.857143H50.47619c9.760663 0 16.666667 7.639955 16.666667 17.142857 0 9.502902-7.382195 17.142857-17.142857 17.142857H32.857143V7.857143z" class="color000 svgShape"/><path fill="none" stroke="#fff" strokeWidth="3" d="M79 25a4 4 0 1 1-8 0 4 4 0 1 1 8 0z" class="colorStroke000 svgStroke"/></svg></svg>